
<svg id="Layer_1" xmlns="http://www.w3.org/2000/svg" version="1.1" viewBox="0 0 960 560">
	<!-- Generator: Adobe Illustrator 29.7.1, SVG Export Plug-In . SVG Version: 2.1.1 Build 8)  -->
	<defs>
		<style>
			.st0 {
				fill: #fff;
			}

			.st1 {
				fill: #f6921e;
			}
		</style>
	</defs>
	<polygon class="st1" points="516 315.82 516 244.53 444.71 244.53 444.71 315.82 516 315.82 516 315.82"/>
	<path class="st0" d="M507,253.52v17.99h-6.66c0-3.31-3.28-6-7.33-6-2.96,0-5.5,1.43-6.66,3.5v22.48c0,4.78,3.72,8.65,8.31,8.66h.02v6.66h-28.65v-6.66h.02c4.59,0,8.31-3.88,8.31-8.66v-22.48c-1.16-2.06-3.7-3.5-6.66-3.5-4.05,0-7.33,2.68-7.33,6h-6.66v-17.99h53.3Z"/>
</svg>
